<?xml version="1.0" standalone="no"?>
<!DOCTYPE svg PUBLIC "-//W3C//DTD SVG 20010904//EN"
 "http://www.w3.org/TR/2001/REC-SVG-20010904/DTD/svg10.dtd">
<svg version="1.0" xmlns="http://www.w3.org/2000/svg"
 width="1280.000000pt" height="1232.000000pt" viewBox="0 0 1280.000000 1232.000000"
 preserveAspectRatio="xMidYMid meet">
<metadata>
Created by potrace 1.15, written by Peter Selinger 2001-2017
</metadata>
<g transform="translate(0.000000,1232.000000) scale(0.100000,-0.100000)"
fill="#000000" stroke="none">
<path d="M11870 12313 c-91 -4 -2568 -79 -3085 -93 -471 -14 -530 -19 -581
-54 -26 -17 -52 -26 -79 -26 -34 0 -67 -18 -227 -121 l-187 -122 -186 -293
c-177 -279 -188 -294 -216 -294 -17 0 -279 -31 -582 -70 -661 -84 -1150 -142
-2072 -249 -763 -89 -856 -99 -2055 -236 -459 -52 -956 -108 -1105 -126 -148
-17 -398 -45 -555 -63 -194 -23 -293 -30 -310 -24 -28 11 -518 -29 -536 -43
-7 -5 -24 -27 -38 -48 -22 -31 -29 -55 -33 -116 -5 -69 -3 -83 17 -120 16 -29
37 -49 66 -63 46 -23 47 -25 92 -198 13 -51 22 -68 40 -75 12 -5 22 -13 22
-18 0 -5 95 -449 210 -987 116 -539 242 -1127 281 -1307 39 -181 68 -331 65
-334 -3 -4 -2 -11 4 -18 7 -9 261 -1166 272 -1243 3 -21 107 -65 993 -418 545
-217 1000 -397 1013 -400 12 -4 22 -8 22 -10 0 -1 -37 -61 -83 -131 -46 -70
-108 -167 -138 -215 -48 -78 -58 -87 -89 -92 -19 -3 -215 -10 -435 -17 -220
-6 -402 -13 -404 -15 -2 -2 -23 -106 -47 -231 -41 -223 -44 -230 -88 -303 -56
-91 -101 -203 -129 -324 -26 -116 -28 -353 -4 -463 85 -379 346 -664 640 -699
29 -3 79 -14 112 -24 91 -28 136 -32 206 -20 177 32 340 192 429 422 45 115
98 308 110 399 6 46 38 181 71 299 154 548 210 746 215 761 4 13 -22 26 -131
64 -75 26 -137 51 -139 54 -3 5 165 271 235 372 l16 23 1174 -467 c646 -258
1713 -683 2371 -945 817 -325 1198 -482 1198 -491 0 -11 3 -12 11 -4 9 9 19 8
40 -2 l28 -15 163 203 c90 111 264 327 387 480 149 185 230 277 242 277 13 0
19 7 19 24 0 15 78 120 236 317 130 162 243 301 251 309 8 8 -19 -54 -61 -137
-362 -727 -656 -1572 -805 -2310 l-37 -188 -65 -3 c-35 -1 -159 -6 -276 -10
-117 -5 -215 -10 -218 -13 -4 -5 -105 -525 -105 -543 0 -4 41 25 90 64 50 39
90 68 90 64 0 -3 -11 -20 -24 -37 -73 -98 -135 -255 -162 -411 -22 -125 -14
-348 16 -466 43 -167 141 -342 253 -451 112 -109 221 -168 366 -195 42 -8 108
-24 146 -34 147 -42 266 -13 398 94 57 47 155 181 191 264 14 30 27 44 45 48
14 3 31 7 36 9 11 3 412 1402 404 1408 -2 2 -148 54 -324 115 -309 109 -323
112 -402 112 -48 0 -83 4 -83 10 0 24 55 271 102 455 220 873 626 1836 1069
2535 63 100 133 185 342 420 271 304 312 344 483 460 197 134 328 187 394 160
18 -7 43 -30 57 -51 l25 -39 -75 -93 -76 -93 81 -194 81 -195 -2 -126 c-3
-151 20 -262 74 -371 93 -185 237 -300 418 -333 40 -7 90 -19 112 -25 22 -7
67 -10 100 -7 164 13 293 148 373 390 61 184 75 302 51 447 -35 217 -190 456
-329 507 l-55 21 -31 103 c-28 97 -32 104 -55 101 -13 -1 -88 -11 -167 -21
l-143 -18 -41 81 c-54 108 -150 204 -245 248 -55 25 -85 32 -160 36 -120 6
-214 -16 -350 -83 -56 -28 -103 -49 -103 -48 0 2 94 113 209 248 l208 245 7
63 c4 39 14 72 27 90 18 25 19 30 6 40 -13 11 -6 80 57 550 40 295 76 540 79
544 11 10 8 -21 -13 -166 -11 -74 -18 -137 -15 -139 4 -4 1073 563 1089 579 6
5 20 100 33 211 12 112 45 403 73 648 l50 445 -21 100 c-17 82 -168 831 -377
1862 l-37 183 19 52 c10 29 21 58 23 64 6 17 -297 292 -358 325 -29 16 -64 28
-78 27 -14 -1 -60 -3 -101 -5z m91 -481 c-183 -461 -193 -484 -215 -475 -25
10 -564 7 -1501 -7 -374 -5 -1026 -14 -1450 -20 -423 -5 -825 -12 -893 -13
-97 -3 -122 -1 -118 9 3 7 47 79 98 160 l93 147 98 64 c136 89 139 90 187 68
44 -20 -201 -24 2470 40 564 14 1061 25 1106 25 l80 0 17 36 c14 29 20 34 32
24 12 -10 11 -18 -4 -58z m-941 -784 c0 -7 -4 -18 -8 -23 -8 -12 -614 -275
-632 -275 -6 0 -21 -6 -33 -14 -27 -18 -329 -148 -333 -143 -4 4 18 441 23
447 3 3 181 7 396 11 216 3 436 6 490 7 72 1 97 -1 97 -10z m-1130 -20 c-2
-97 -31 -503 -37 -508 -11 -9 -759 -330 -770 -330 -6 0 68 807 76 837 1 3 236
8 509 11 172 2 222 -1 222 -10z m-870 -15 c0 -50 -82 -861 -90 -879 -4 -11
-25 -26 -49 -34 -36 -12 -77 -11 -289 4 -136 9 -249 19 -251 22 -5 4 33 678
46 826 l6 68 171 3 c483 8 456 9 456 -10z m-753 -40 c-3 -27 -16 -223 -28
-438 -12 -214 -25 -393 -28 -397 -6 -7 -432 20 -440 28 -2 2 2 193 9 424 l13
419 141 4 c78 1 185 4 240 5 l99 2 -6 -47z m-572 -40 c-3 -43 -10 -231 -16
-418 -6 -187 -12 -341 -14 -343 -2 -3 -309 18 -311 22 -1 1 11 358 22 644 l6
172 159 0 158 0 -4 -77z m-561 -55 c-3 -57 -9 -231 -14 -387 -6 -156 -12 -287
-15 -289 -3 -3 -216 -37 -474 -76 l-469 -71 -6 110 c-12 230 -29 686 -24 690
2 2 222 32 489 65 266 33 489 62 494 64 20 7 23 -6 19 -106z m4861 75 c-47
-268 -44 -241 -262 -1818 -70 -506 -128 -922 -130 -924 -14 -19 1 105 98 820
60 448 112 832 115 854 3 22 23 173 45 335 22 162 54 396 70 520 18 130 35
228 42 232 21 14 27 9 22 -19z m-354 -546 c-38 -279 -70 -510 -72 -511 -6 -6
-500 32 -506 38 -11 11 48 755 60 762 1 0 133 57 292 126 228 98 291 121 293
109 1 -9 -29 -245 -67 -524z m-5647 411 c3 -13 10 -167 16 -343 6 -176 13
-347 16 -381 l6 -60 -305 -46 -305 -47 -258 26 c-143 14 -262 28 -265 32 -7 6
-69 620 -69 676 l0 31 553 65 c303 37 564 67 579 68 21 1 29 -4 32 -21z
m-1311 -170 c14 -101 60 -628 56 -633 -3 -2 -70 2 -150 10 -79 9 -364 38 -633
65 -269 27 -490 51 -491 52 -5 5 -62 393 -59 396 1 2 234 30 516 63 282 32
563 64 623 72 61 8 115 15 121 16 7 0 14 -18 17 -41z m6243 -365 c-21 -186
-40 -339 -40 -340 -1 -1 -109 5 -241 15 l-239 17 2 60 c1 33 5 127 8 208 l7
148 28 14 c15 8 42 15 59 15 16 0 29 5 28 10 -3 10 393 189 417 190 7 0 -3
-123 -29 -337z m-7666 230 c0 -5 12 -80 25 -168 31 -198 31 -193 3 -188 -13 2
-248 26 -523 54 -694 69 -878 88 -880 91 -1 2 -5 15 -9 30 -7 32 -10 31 129
47 50 6 167 20 260 31 94 11 206 25 250 30 44 5 161 19 260 30 99 11 230 27
290 34 129 16 195 19 195 9z m-1540 -183 c0 -5 -21 -10 -47 -10 -35 0 -44 3
-33 10 20 13 80 13 80 0z m8545 -209 l-7 -133 -137 7 c-75 4 -138 9 -140 11
-2 1 0 48 4 102 l7 99 136 59 137 59 3 -35 c2 -19 1 -95 -3 -169z m-429 -78
c-4 -12 -13 -23 -21 -23 -11 0 -15 13 -15 54 0 44 3 55 18 58 13 3 18 -4 20
-31 2 -19 1 -45 -2 -58z m-8789 36 c164 -16 299 -32 301 -34 7 -7 122 -699
117 -704 -9 -8 -810 -128 -816 -122 -4 3 -39 156 -78 340 -71 334 -71 334 -52
363 18 29 18 31 -2 84 -11 30 -18 56 -16 58 2 2 42 -1 88 -5 l84 -9 34 30 c18
17 36 30 38 30 2 0 138 -14 302 -31z m8600 -45 c-3 -3 -16 -4 -29 -2 l-23 5
25 10 c23 10 41 1 27 -13z m-7972 -18 l110 -11 62 -290 c34 -160 62 -295 62
-300 1 -8 -189 -42 -333 -59 -5 -1 -33 141 -62 314 -29 173 -55 327 -58 342
l-5 26 57 -5 c31 -3 107 -11 167 -17z m5427 -126 l-3 -120 -52 6 c-29 3 -239
25 -467 49 -228 23 -413 44 -410 44 15 5 889 139 910 140 l25 1 -3 -120z m461
104 l97 -7 0 -93 c0 -78 -3 -94 -15 -94 -19 0 -117 -49 -126 -62 -3 -5 -34 -7
-70 -3 -113 11 -109 8 -109 69 0 29 3 88 7 131 l6 77 56 -6 c31 -3 100 -8 154
-12z m-5228 -45 c182 -18 333 -35 337 -39 9 -7 51 -370 44 -377 -9 -10 -640
-103 -646 -96 -4 5 -31 121 -59 260 -29 139 -55 262 -58 274 -5 19 -3 21 23
16 16 -3 178 -20 359 -38z m5645 16 c102 -8 193 -15 203 -15 14 0 17 -9 17
-54 l0 -55 -59 -36 -60 -36 -163 13 c-118 9 -163 16 -162 26 1 6 2 48 3 92 1
69 3 80 19 80 9 0 100 -7 202 -15z m370 -35 c-19 -13 -30 -13 -30 0 0 6 10 10
23 10 18 0 19 -2 7 -10z m-5220 -61 c124 -12 226 -23 228 -24 6 -5 35 -206 30
-210 -6 -7 -539 -88 -544 -83 -2 2 -10 69 -19 149 -8 79 -17 157 -20 173 l-5
29 52 -6 c29 -3 154 -16 278 -28z m6324 -10 l199 -12 -7 -141 c-3 -78 -9 -340
-12 -583 l-7 -442 -80 -51 -79 -51 -172 31 c-94 17 -181 33 -193 35 l-23 5 0
544 0 543 74 71 c41 40 80 70 88 68 7 -2 102 -10 212 -17z m348 -406 l-20
-368 5 365 c2 201 7 371 9 379 3 10 8 11 16 3 7 -7 5 -114 -10 -379z m-6136
361 l72 -6 7 -55 c4 -30 4 -58 0 -61 -3 -4 -51 -14 -106 -23 -112 -17 -102
-23 -114 66 -3 28 -9 61 -12 74 -6 23 -4 23 38 18 24 -4 76 -9 115 -13z m6568
-11 c17 -5 18 -14 12 -137 -3 -72 -11 -237 -17 -366 -5 -129 -13 -238 -17
-242 -24 -24 -288 -185 -290 -178 -4 10 33 727 44 864 l6 78 122 -7 c66 -3
129 -9 140 -12z m-6184 -28 c74 -8 140 -15 145 -16 12 -1 -273 -48 -296 -49
-12 0 -18 11 -21 40 -4 47 -17 45 172 25z m6604 0 c110 -9 202 -18 205 -20 2
-3 -4 -73 -15 -156 l-19 -152 -224 -143 c-124 -79 -226 -142 -228 -140 -5 4
17 552 23 594 6 38 -12 37 258 17z m555 -41 l54 -6 -104 -67 c-57 -37 -109
-70 -116 -74 -9 -6 -11 10 -7 65 3 40 7 78 9 84 3 11 40 11 164 -2z m-2319
-36 c-1 -55 -96 -987 -101 -992 -5 -6 -510 82 -517 89 -3 3 12 28 32 57 l36
53 0 275 0 276 132 64 c72 36 139 73 149 84 15 15 236 121 262 125 4 1 7 -14
7 -31z m2605 -375 c-25 -186 -68 -502 -95 -702 -27 -200 -51 -366 -53 -367 -3
-4 -400 65 -402 69 -1 1 15 233 35 516 32 453 38 516 53 525 10 6 127 81 260
166 138 89 243 151 245 144 2 -7 -18 -164 -43 -351z m-6511 325 c5 -30 57
-846 72 -1128 10 -178 -10 -123 -29 80 -53 561 -97 1019 -101 1048 -4 30 -3
32 24 32 25 0 30 -4 34 -32z m1034 -73 c31 -6 32 -7 32 -58 0 -29 7 -222 16
-430 9 -208 14 -380 11 -383 -8 -9 -860 -244 -865 -239 -4 4 -80 1110 -82
1185 0 14 56 10 428 -27 235 -24 442 -45 460 -48z m-1234 28 c13 -123 116
-1199 116 -1215 0 -37 -50 -31 -477 53 -377 74 -426 86 -432 104 -8 21 -94
976 -89 980 3 1 837 131 865 134 6 1 14 -22 17 -56z m1643 -69 l182 -17 5 -36
c8 -55 48 -612 44 -616 -1 -1 -95 -28 -208 -59 -113 -31 -212 -59 -221 -62
-14 -4 -17 32 -28 313 -6 175 -14 360 -18 412 l-6 94 34 -6 c19 -3 116 -14
216 -23z m-2657 -53 c0 -11 18 -219 40 -462 22 -244 40 -448 40 -455 0 -8 -19
-7 -72 3 -40 9 -74 16 -75 17 -4 4 -133 853 -133 874 0 16 11 21 73 29 116 16
127 16 127 -6z m3201 -2 l116 -12 -4 -156 c-3 -86 -8 -196 -12 -245 l-6 -89
-120 -33 c-66 -19 -125 -34 -131 -34 -6 0 -17 92 -28 248 -9 136 -20 269 -23
296 l-6 48 49 -6 c27 -3 101 -11 165 -17z m-3550 -31 c3 -17 127 -833 126
-834 -3 -1 -612 119 -615 122 -4 3 -73 627 -69 630 3 2 518 82 540 83 9 1 17
0 18 -1z m4000 -14 c37 -5 46 -11 59 -38 14 -29 19 -32 89 -40 l73 -8 -7 -217
c-4 -119 -9 -218 -11 -220 -4 -4 -235 33 -291 46 -24 5 -23 -32 -7 346 7 155
-1 144 95 131z m-4677 -121 c12 -81 58 -544 55 -547 -2 -2 -142 23 -310 56
l-306 60 -38 180 c-21 98 -35 181 -32 185 4 3 143 27 309 53 167 26 306 48
310 49 3 0 9 -16 12 -36z m5139 0 c10 -6 9 -453 -1 -453 -11 0 -123 20 -142
25 -13 4 -14 30 -9 187 4 101 7 200 8 222 l1 38 68 -7 c37 -4 70 -9 75 -12z
m-5933 -87 c0 -3 14 -71 31 -151 17 -80 29 -149 26 -151 -6 -7 -370 65 -378
74 -10 11 -31 163 -24 170 3 4 79 19 168 33 89 15 165 27 170 28 4 0 7 -1 7
-3z m8846 -48 c-3 -18 -26 -208 -52 -423 -25 -214 -46 -390 -47 -391 -1 0 -81
14 -177 31 l-175 32 2 134 c1 74 5 188 9 254 l6 120 211 137 c117 75 216 137
220 137 4 1 5 -14 3 -31z m-9293 -40 c3 -13 9 -46 13 -74 l6 -51 -206 41
c-114 22 -202 42 -197 44 9 3 87 16 372 61 4 1 9 -9 12 -21z m-396 -229 c224
-44 418 -83 430 -85 14 -4 23 -16 27 -37 3 -18 51 -304 106 -637 55 -333 103
-617 106 -632 4 -19 1 -28 -7 -28 -7 0 -168 -43 -356 -97 -202 -56 -347 -92
-352 -87 -4 5 -61 257 -126 559 -65 303 -146 679 -179 838 -34 158 -61 287
-60 287 1 0 186 -36 411 -81z m9098 -226 c-3 -82 -8 -166 -11 -188 l-5 -41
-144 25 -145 24 0 61 c0 34 4 66 8 73 8 13 282 192 295 193 5 0 5 -66 2 -147z
m-8317 72 c89 -18 164 -34 166 -36 4 -5 226 -1060 226 -1074 0 -9 -368 -116
-397 -115 -7 0 -13 3 -13 8 0 8 -198 1194 -206 1234 -6 32 -34 34 224 -17z
m5167 -274 l-8 -299 -81 -31 c-45 -17 -86 -31 -92 -31 -10 0 -59 589 -50 598
7 6 230 69 235 66 1 -2 0 -138 -4 -303z m423 265 c73 -13 135 -26 139 -29 6
-6 -15 -648 -21 -654 -3 -3 -212 50 -290 73 -18 6 -18 17 -12 258 8 323 13
376 35 376 9 0 76 -11 149 -24z m404 -71 c58 -10 111 -21 117 -25 8 -4 16
-122 25 -356 7 -192 12 -350 12 -351 -1 -1 -58 13 -126 32 -69 18 -145 38
-169 45 l-43 11 6 242 c3 133 9 284 12 335 l7 94 26 -5 c14 -3 74 -13 133 -22z
m-5357 -45 c143 -28 269 -54 280 -59 19 -8 23 -37 59 -380 22 -204 37 -374 33
-377 -7 -7 -460 -135 -462 -131 -4 7 -206 984 -205 994 0 6 8 9 18 7 9 -2 134
-27 277 -54z m4155 28 c0 -13 9 -150 21 -306 13 -163 18 -287 13 -291 -5 -5
-34 -18 -64 -29 l-55 -20 -177 35 -176 36 -6 146 c-4 80 -8 186 -9 235 l-2 88
220 63 c121 35 223 64 228 64 4 1 7 -9 7 -21z m1850 -98 c129 -23 236 -43 239
-45 6 -6 -31 -392 -38 -402 -3 -5 -93 -64 -198 -132 -174 -111 -195 -122 -220
-114 -28 10 -28 10 -34 124 -4 63 -10 228 -14 368 -7 245 -7 253 11 248 11 -3
125 -24 254 -47z m-4955 -141 c9 -9 64 -394 57 -400 -10 -9 -601 -173 -606
-168 -3 3 -77 670 -76 690 0 6 617 -115 625 -122z m2519 -46 c3 -76 8 -167 10
-202 l4 -63 -32 6 c-319 65 -750 149 -778 153 -38 6 -53 22 -20 24 9 0 188 49
397 108 209 60 387 109 396 110 15 1 18 -17 23 -136z m2817 -147 c-11 -11 -23
-17 -26 -14 -6 6 12 219 22 258 4 15 10 -26 15 -99 8 -118 7 -126 -11 -145z
m269 221 l65 -12 -77 -48 c-41 -26 -78 -47 -82 -47 -3 0 -6 27 -6 60 0 68 -4
66 100 47z m-5370 -71 l55 -13 7 -49 c4 -27 8 -89 10 -138 l3 -90 -48 -14
c-27 -7 -51 -12 -53 -9 -3 2 -14 62 -24 133 -11 71 -22 144 -25 162 -7 37 -6
37 75 18z m5772 -1 l38 -7 -5 -267 c-8 -416 -16 -571 -28 -571 -16 0 -459 119
-484 130 -23 10 -23 11 -23 232 l0 223 213 137 c137 89 219 136 232 133 11 -2
37 -7 57 -10z m-5136 -128 c2 -2 -91 -29 -207 -61 -115 -32 -212 -57 -214 -54
-2 2 -7 49 -11 105 l-7 101 218 -44 c120 -24 220 -45 221 -47z m5594 48 c79
-14 144 -27 145 -28 1 -1 -2 -76 -6 -167 -4 -91 -13 -289 -19 -440 -7 -151
-13 -276 -15 -278 -3 -3 -294 74 -300 80 -2 2 41 836 45 856 0 3 -7 4 150 -23z
m480 -84 c152 -27 155 -28 153 -52 -2 -13 -21 -184 -44 -379 l-41 -355 -64
-65 -63 -64 -75 18 c-41 11 -79 22 -84 25 -7 4 -3 157 9 426 10 231 18 432 19
448 0 33 -7 33 190 -2z m-5598 -57 c5 -3 8 -22 8 -42 0 -20 14 -172 30 -337
17 -165 30 -310 30 -322 0 -17 -11 -25 -62 -41 -35 -11 -164 -52 -288 -92
-124 -39 -281 -90 -350 -111 -69 -22 -136 -45 -149 -50 -13 -5 -25 -8 -27 -6
-4 4 -61 632 -66 725 l-3 64 265 74 c146 42 326 93 400 114 124 35 183 42 212
24z m6198 -50 c80 -14 146 -27 146 -27 1 -1 -79 -80 -178 -176 -98 -95 -180
-172 -182 -170 -1 2 3 81 10 174 7 94 13 185 13 203 1 28 4 32 24 27 12 -2 87
-17 167 -31z m-6030 -53 c0 -71 -6 -63 -14 19 -4 44 -3 60 4 50 5 -8 10 -39
10 -69z m594 -44 c451 -90 434 -84 435 -147 1 -24 -15 -31 -342 -153 -188 -70
-379 -140 -424 -157 l-82 -29 -5 42 c-3 23 -10 123 -16 222 -6 99 -13 208 -16
243 -6 56 -5 62 12 62 11 0 208 -38 438 -83z m3246 -147 c0 -167 2 -163 -69
-139 -30 10 -32 15 -27 43 3 17 8 70 12 118 6 84 8 89 38 108 17 11 34 20 39
20 4 0 7 -67 7 -150z m-5020 36 c0 -2 16 -178 35 -391 19 -213 32 -391 30
-395 -3 -4 -14 -10 -25 -13 -15 -4 -21 1 -25 16 -10 48 -116 759 -113 762 10
10 98 29 98 21z m3383 -6 c10 0 16 -4 13 -8 -7 -11 -64 -3 -73 11 -4 6 2 8 18
4 13 -4 32 -7 42 -7z m1412 -76 c-3 -24 -11 -44 -16 -44 -21 0 -99 23 -99 29
1 11 115 78 119 69 1 -5 0 -29 -4 -54z m2539 -352 c-26 -196 -48 -358 -49
-360 -2 -2 -76 16 -165 40 l-162 43 6 130 6 130 203 197 c111 108 204 192 205
187 2 -5 -18 -170 -44 -367z m-7574 356 c1 -7 27 -182 59 -388 32 -206 56
-378 52 -381 -8 -8 -643 -211 -647 -206 -2 2 -78 688 -86 787 -2 27 1 35 15
38 11 2 143 39 295 82 153 44 285 79 295 79 9 1 17 -5 17 -11z m3285 -64 l30
-7 -40 -17 c-42 -18 -55 -13 -55 23 0 13 5 17 18 13 9 -3 30 -8 47 -12z m-205
-58 c0 -38 -3 -45 -28 -55 -22 -9 -39 -7 -96 12 l-70 23 95 31 c52 17 95 31
97 32 1 1 2 -19 2 -43z m671 -33 c132 -25 238 -47 236 -48 -1 -2 -81 -43 -177
-92 l-175 -90 -197 64 c-183 59 -198 65 -198 87 0 21 15 30 118 74 64 28 125
51 136 51 10 1 126 -20 257 -46z m-4451 -451 c24 -229 39 -407 34 -411 -14
-13 -75 -31 -104 -31 -22 0 -278 75 -288 85 -3 2 -129 595 -135 634 -1 9 63
31 218 75 121 34 223 60 226 57 3 -3 25 -187 49 -409z m5516 355 c1 -1 -40
-28 -91 -59 l-93 -56 -7 73 c-4 41 -4 79 -1 84 5 7 182 -31 192 -42z m2271 21
c-3 -8 -6 -5 -6 6 -1 11 2 17 5 13 3 -3 4 -12 1 -19z m-4341 -10 c40 -13 74
-26 74 -29 0 -4 -19 -14 -42 -22 -41 -16 -46 -16 -118 7 -41 13 -84 26 -95 28
-15 3 -8 8 25 20 60 22 70 22 156 -4z m1553 -23 c41 -9 76 -17 77 -18 1 -1 5
-54 9 -118 l7 -116 -60 -37 -61 -37 -230 73 c-127 40 -231 75 -231 78 0 13
377 198 395 194 11 -2 53 -11 94 -19z m800 -61 c53 -14 111 -30 129 -35 l32
-11 0 -267 0 -268 -306 98 c-169 54 -308 100 -309 101 -2 2 -5 43 -6 93 l-4
89 180 112 c99 62 182 113 184 113 2 1 47 -11 100 -25z m-2054 -13 c82 -29 71
-46 -35 -57 -82 -8 -94 -7 -122 10 l-30 19 54 23 c63 27 68 28 133 5z m-4335
-298 c31 -148 56 -270 54 -271 -4 -5 -467 138 -476 146 -9 9 -54 280 -48 285
8 7 405 114 409 111 2 -2 29 -124 61 -271z m6945 162 c115 -31 211 -58 213
-60 4 -3 -434 -295 -444 -295 -2 0 -4 94 -4 210 0 163 3 208 13 205 6 -2 106
-29 222 -60z m-7510 -57 c9 -41 33 -193 31 -195 -1 -1 -54 13 -117 33 -63 19
-152 47 -199 61 l-85 26 165 47 c91 26 173 48 182 49 11 1 20 -8 23 -21z
m8921 -34 c-4 -19 -11 -32 -17 -29 -12 8 -11 27 2 62 14 35 23 14 15 -33z
m-3184 -42 l237 -77 -237 -146 -237 -145 -16 96 c-18 109 -30 149 -70 238
l-28 62 47 25 c26 13 52 24 57 24 6 1 117 -34 247 -77z m2394 -32 c104 -28
189 -52 190 -53 1 -1 -1 -37 -3 -79 l-6 -77 -171 -164 c-156 -150 -175 -164
-201 -160 l-28 6 6 171 c4 94 7 224 7 289 0 66 4 117 9 117 6 0 94 -23 197
-50z m-3758 14 c39 -9 72 -20 72 -23 0 -3 -16 -16 -35 -29 l-35 -22 50 -75
c28 -41 49 -75 46 -75 -7 0 -499 170 -503 174 -2 2 36 20 84 40 81 34 94 36
168 32 44 -2 113 -12 153 -22z m3402 -269 c0 -174 -3 -215 -13 -215 -15 0
-417 127 -424 133 -2 3 418 290 435 296 1 1 2 -96 2 -214z m-8075 75 c198 -62
362 -114 364 -116 6 -6 71 -397 68 -412 -1 -7 -62 -33 -137 -57 -349 -113
-522 -166 -525 -163 -5 5 -185 845 -185 863 0 11 6 12 28 5 15 -5 189 -59 387
-120z m3355 97 c-8 -8 -77 -67 -152 -131 l-138 -118 -92 33 c-51 18 -96 35
-101 39 -6 6 461 187 488 189 5 1 3 -5 -5 -12z m3145 -33 l52 -17 6 -151 c4
-83 10 -240 13 -349 l7 -197 -304 104 c-167 57 -347 119 -399 136 -52 18 -98
36 -102 39 -22 19 45 69 342 251 179 110 327 200 329 200 2 0 28 -7 56 -16z
m-2170 -99 c302 -103 330 -113 323 -120 -2 -3 -148 -79 -324 -170 l-319 -165
-90 31 c-49 18 -93 35 -98 39 -6 5 -19 149 -29 324 l-2 50 124 52 c69 28 127
52 130 53 3 0 132 -42 285 -94z m624 64 c11 -18 11 -23 -1 -30 -7 -5 -15 -9
-18 -9 -10 0 -31 41 -25 50 10 16 29 11 44 -11z m4206 -43 c36 -11 40 -15 38
-41 -2 -17 -10 -138 -19 -269 -16 -233 -17 -241 -43 -273 -14 -18 -30 -32 -36
-30 -5 2 -88 28 -183 58 l-174 54 4 110 4 110 154 152 c171 169 151 159 255
129z m-2096 -338 c-133 -88 -243 -158 -244 -156 -2 2 -6 110 -10 240 l-8 236
252 -81 251 -81 -241 -158z m2457 239 c2 -2 -188 -242 -203 -257 -6 -6 5 201
13 267 l6 41 91 -24 c50 -14 92 -26 93 -27z m-5866 -140 c3 -56 5 -104 3 -106
-3 -5 -193 62 -192 69 1 10 174 149 179 144 2 -3 7 -51 10 -107z m-2937 32
c128 -40 238 -79 245 -87 6 -9 12 -26 12 -38 0 -20 -11 -26 -82 -48 -46 -14
-145 -46 -221 -70 -94 -30 -139 -41 -142 -33 -5 15 -55 322 -55 336 0 6 3 11
6 11 3 0 110 -32 237 -71z m2091 5 l128 -47 -33 -26 c-18 -14 -83 -47 -145
-73 l-112 -46 -6 56 c-3 32 -9 88 -12 126 l-7 69 29 -6 c16 -3 87 -27 158 -53z
m-302 -173 l3 -75 -85 -34 -85 -34 -187 58 c-103 32 -185 60 -182 63 3 3 121
49 262 101 l257 96 7 -50 c3 -28 8 -84 10 -125z m2366 168 c39 -14 87 -87 107
-164 9 -32 34 -93 57 -137 22 -43 39 -80 37 -82 -54 -40 -277 -166 -288 -163
-32 9 -584 208 -598 216 -10 5 83 58 304 173 175 91 325 166 334 167 9 1 30
-4 47 -10z m2992 -152 l195 -63 3 -60 3 -60 -231 -223 c-154 -150 -235 -221
-245 -217 -13 5 -15 55 -15 360 l0 355 48 -15 c26 -7 135 -42 242 -77z m-452
-405 l-3 -157 -292 100 c-279 95 -293 101 -293 125 0 22 39 50 293 217 l292
192 3 -159 c1 -88 1 -231 0 -318z m-3908 312 c85 -30 158 -58 161 -62 4 -4 9
-35 11 -70 l4 -62 -173 -90 -173 -91 -185 58 c-102 31 -185 60 -185 63 0 4 57
54 128 113 70 58 150 126 177 151 28 25 57 45 65 46 8 0 85 -25 170 -56z
m-1641 -111 c102 -31 190 -60 194 -63 5 -4 -4 -12 -20 -17 -24 -8 -54 1 -200
57 -95 36 -176 69 -179 73 -15 15 25 5 205 -50z m4223 -60 c192 -65 348 -121
348 -124 0 -3 -131 -93 -291 -198 l-292 -192 -116 42 c-242 87 -218 73 -225
127 -3 26 -8 81 -11 122 l-6 76 35 12 c53 19 121 93 162 177 20 41 40 75 43
75 3 0 162 -53 353 -117z m-3562 57 c0 -5 -4 -10 -9 -10 -6 0 -13 5 -16 10 -3
6 1 10 9 10 9 0 16 -4 16 -10z m6015 -10 c28 -9 49 -21 49 -26 -1 -5 -7 -162
-14 -349 -7 -187 -16 -344 -21 -349 -7 -8 -291 80 -340 105 -14 7 -16 30 -11
196 l5 188 131 127 c72 70 136 127 141 127 6 0 33 -9 60 -19z m-7047 -47 c52
-18 59 -34 64 -137 l3 -78 -439 -179 c-242 -99 -446 -178 -455 -177 -12 2 -21
34 -38 128 -30 169 -30 165 15 178 20 7 204 75 407 151 204 77 377 137 385
134 8 -3 34 -12 58 -20z m2807 -113 c170 -61 314 -114 320 -118 8 -4 -63 -54
-186 -129 l-199 -122 -182 55 c-101 31 -188 61 -194 68 -7 6 -15 66 -19 142
l-7 131 74 41 c40 23 76 41 79 42 4 0 145 -50 314 -110z m4712 7 c2 -3 -62
-86 -143 -186 -80 -100 -148 -180 -150 -178 -3 2 0 91 6 198 5 107 10 208 10
225 l0 32 136 -44 c75 -24 139 -45 141 -47z m-6685 22 l100 -30 -23 -25 c-12
-13 -27 -24 -33 -24 -10 0 -113 38 -196 72 l-25 10 30 14 c40 18 34 18 147
-17z m2890 2 c18 -11 54 -25 80 -31 l47 -12 5 -52 c11 -102 13 -156 7 -156
-13 0 -391 135 -390 140 0 6 200 129 211 129 4 1 22 -8 40 -18z m-3464 -18
c24 -8 42 -17 40 -18 -2 -2 -27 -13 -55 -24 -41 -16 -53 -18 -53 -7 0 7 -3 28
-7 46 -6 30 -4 33 13 26 10 -5 38 -15 62 -23z m1944 -138 c2 -41 1 -75 -2 -75
-3 0 -47 13 -99 29 l-94 28 84 46 c46 25 89 46 96 46 7 1 13 -25 15 -74z
m-1594 3 c89 -34 162 -64 162 -67 0 -3 -56 -76 -123 -163 -67 -86 -176 -233
-242 -326 -66 -94 -122 -171 -125 -171 -3 -1 -20 144 -38 322 -19 177 -36 334
-39 348 -5 24 1 28 104 71 59 25 115 46 123 47 8 1 88 -27 178 -61z m4486 -85
c3 -60 8 -188 12 -286 l6 -177 -143 51 c-79 28 -208 73 -286 101 -79 28 -143
53 -143 57 0 6 530 359 541 360 4 1 9 -47 13 -106z m-3629 40 c61 -19 117 -37
125 -39 9 -4 -10 -19 -53 -40 l-68 -35 -109 42 -109 42 30 39 c25 30 36 37 53
32 11 -3 71 -22 131 -41z m4333 -133 l122 -42 0 -48 0 -47 -198 -191 -198
-190 -80 28 -79 28 -6 78 c-4 43 -10 182 -14 310 l-7 231 168 -57 c93 -32 224
-77 292 -100z m-2197 14 l277 -99 6 -60 c3 -33 8 -105 12 -161 6 -87 4 -102
-9 -107 -16 -6 -967 282 -967 293 1 10 385 240 395 236 6 -2 134 -48 286 -102z
m-3481 -251 c18 -167 30 -307 28 -312 -2 -6 -659 250 -818 320 -22 9 16 27
360 168 323 133 386 155 392 142 4 -9 21 -152 38 -318z m-1089 227 c8 -55 13
-100 10 -100 -9 0 -256 102 -264 109 -8 8 194 89 223 90 12 1 19 -22 31 -99z
m7525 -87 c-4 -5 -100 23 -120 35 -4 2 21 33 55 69 l64 64 3 -82 c2 -45 1 -84
-2 -86z m-4666 98 c36 -11 124 -38 196 -60 l131 -41 6 -82 c3 -46 4 -84 3 -85
-2 -2 -132 46 -290 107 -157 60 -291 110 -296 110 -26 0 -3 19 62 51 56 28 79
34 98 28 14 -4 54 -17 90 -28z m-642 -67 c29 -8 28 -18 -3 -32 -14 -6 -25 -8
-25 -3 0 5 -3 16 -6 25 -7 17 -1 19 34 10z m-159 -96 c1 -12 -19 -28 -59 -48
-33 -16 -62 -30 -65 -30 -3 0 21 32 52 70 53 65 59 69 65 48 3 -13 6 -31 7
-40z m723 -120 c191 -73 347 -136 345 -140 -5 -16 -862 -536 -864 -525 -5 26
-63 700 -61 702 25 22 198 104 212 101 11 -3 177 -65 368 -138z m2259 129 c19
-8 56 -22 82 -32 l49 -17 -76 -51 c-42 -27 -78 -48 -80 -46 -5 6 -17 159 -12
159 2 0 19 -6 37 -13z m-1613 -21 l73 -23 -73 -46 c-71 -44 -73 -45 -80 -24
-9 31 -9 117 0 117 4 0 40 -11 80 -24z m3978 -45 l109 -39 -1 -306 c-1 -169
-4 -309 -6 -312 -3 -2 -107 32 -232 77 l-226 81 0 163 0 162 110 107 c61 58
116 106 123 106 8 0 63 -18 123 -39z m-3246 -181 c250 -78 462 -143 470 -146
9 -3 -34 -37 -114 -90 -72 -46 -133 -84 -138 -84 -6 0 -703 265 -860 327 l-47
18 102 63 c56 34 108 60 117 57 8 -2 220 -68 470 -145z m1620 -19 l305 -109 6
-138 c4 -77 6 -140 5 -141 -2 -2 -1058 326 -1063 330 -2 2 68 51 154 109 l158
105 65 -23 c36 -13 202 -73 370 -133z m-3681 -217 c16 -175 28 -320 26 -322
-3 -4 -537 208 -548 218 -7 6 134 214 173 254 16 16 311 175 317 171 2 -1 16
-145 32 -321z m5712 279 c60 -21 109 -40 109 -43 0 -8 -252 -321 -256 -317 -2
1 -1 94 3 205 5 168 9 202 20 198 8 -3 63 -23 124 -43z m-4250 -224 c101 -38
285 -109 409 -156 124 -47 229 -88 233 -92 8 -8 -764 -521 -783 -521 -6 0 -10
23 -10 50 0 51 -35 613 -45 728 -3 34 -2 62 4 62 5 0 91 -32 192 -71z m-341 4
c0 -21 11 -207 25 -413 14 -206 25 -387 25 -401 0 -27 -3 -26 -447 152 -247
98 -448 181 -448 184 0 8 817 513 833 514 7 1 12 -13 12 -36z m3667 -79 c-4
-4 -53 13 -66 23 -3 2 11 19 30 39 l34 35 3 -46 c2 -26 1 -49 -1 -51z m-2005
28 c9 -9 27 -183 28 -258 l0 -42 -162 63 c-90 34 -171 65 -181 68 -14 5 12 27
115 97 111 74 138 89 163 84 16 -2 33 -8 37 -12z m1476 -1 c10 -6 10 -10 -1
-20 -12 -9 -16 -7 -20 9 -5 21 0 25 21 11z m-955 -157 c188 -58 419 -130 514
-159 94 -29 176 -56 182 -60 6 -3 11 -30 11 -59 l0 -54 -103 -95 -102 -95
-325 124 c-179 69 -368 142 -420 162 l-95 38 -7 95 c-4 52 -9 120 -11 152 -3
34 -1 57 5 57 5 0 163 -48 351 -106z m1392 4 l92 -32 7 -410 c7 -401 7 -409
-13 -429 l-20 -20 -245 93 -245 94 -5 40 c-3 23 -7 113 -10 201 l-5 160 167
168 c92 92 171 167 176 167 5 0 51 -14 101 -32z m451 -162 c98 -35 178 -68
176 -73 -4 -10 -363 -433 -368 -433 -2 0 -4 128 -4 285 0 157 4 285 8 285 5 0
89 -29 188 -64z m-2583 -58 c234 -90 267 -105 267 -124 0 -12 16 -225 35 -475
19 -250 35 -466 35 -480 0 -26 -10 -22 -752 273 -414 165 -757 303 -761 307
-7 7 877 598 898 600 6 1 130 -45 278 -101z m902 -345 c110 -42 203 -79 208
-82 4 -4 -134 -146 -307 -315 -275 -268 -316 -304 -320 -284 -3 13 -16 183
-31 378 -14 195 -28 385 -31 422 l-7 67 144 -55 c79 -30 234 -89 344 -131z
m555 -7 c0 -35 0 -35 -31 -24 l-30 10 22 24 c30 33 39 30 39 -10z m-5430 -74
c0 -15 -31 -52 -40 -47 -4 3 -43 12 -87 20 -86 17 -227 19 -286 6 -37 -9 -38
-9 -21 10 16 18 33 19 226 19 114 0 208 -3 208 -8z m5337 -96 c68 -27 90 -39
95 -58 4 -12 12 -207 18 -433 6 -225 13 -443 16 -483 l6 -73 -34 14 c-18 7
-230 92 -470 188 -241 96 -437 176 -437 179 1 5 711 700 715 700 1 0 42 -15
91 -34z m551 -212 c90 -34 166 -65 169 -67 3 -3 -75 -100 -173 -215 l-179
-210 -7 156 c-3 87 -9 215 -12 285 l-5 128 22 -7 c12 -4 95 -35 185 -70z m492
-2360 c0 -11 -6 -14 -22 -9 -39 12 -44 25 -10 25 22 0 32 -5 32 -16z"/>
</g>
</svg>
